<?xml version="1.0" encoding="utf-8"?>
<!-- Svg Vector Icons : http://www.onlinewebfonts.com/icon -->
<!DOCTYPE svg PUBLIC "-//W3C//DTD SVG 1.1//EN" "http://www.w3.org/Graphics/SVG/1.1/DTD/svg11.dtd">
<svg version="1.1" xmlns="http://www.w3.org/2000/svg" xmlns:xlink="http://www.w3.org/1999/xlink" x="0px" y="0px" viewBox="0 0 256 256" enable-background="new 0 0 256 256" xml:space="preserve">
<metadata> Svg Vector Icons : http://www.onlinewebfonts.com/icon </metadata>
<g><g><g><path fill="#000000" d="M87.4,18.1v8.1h3.7h3.7l0.1,96.1c0.1,107.8-0.2,97.7,3.6,105.4c5.7,11.6,16.6,18.4,29.5,18.4c15,0,27.4-9.4,31.9-24.2l1.1-3.4l0.1-96.1l0.1-96.1h3.7h3.7v-8.1V10H128H87.4V18.1z M164.5,17.8V22h-3.7h-3.7l-0.1,98.4l-0.1,98.5l-1,3c-3.1,9-10.3,16.2-19.1,19c-13.3,4.2-28.5-2.1-34.5-14.4c-3.6-7.3-3.3,1.8-3.3-106.9V22h-3.7h-3.7v-4.2v-4.2H128h36.5V17.8z"/></g></g></g>
</svg>